# xmcd
#
# Track frame offsets:
#	150
#	19655
#	35527
#	57481
#	69161
#	85482
#	101238
#	116047
#	136093
#	151177
#	169857
#	186022
#	203382
#	221865
#	238293
#	255303
#	276362
#
# Disc length: 3932
#
# Revision: 1
# Processed by: cddbd v1.5.1PL0 Copyright (c) Steve Scherf et al.
# Submitted via: EasyCDDAExtractor 4.6.0.1
# Normalized: r0:TDELIM( - )
#
DISCID=f10f5a11
DTITLE=Various Artist - Country Heat 2002
DYEAR=2002
DGENRE=Country
TTITLE0=Dixie Chicks - Goodbye Earl
TTITLE1=Lonestar - What About Now?
TTITLE2=Carolyn Dawn Johnson - Georgia
TTITLE3=Alan Jackson - www.Memory
TTITLE4=Diamond Rio - One More Day
TTITLE5=Mark McGuinn - Mrs. Steven Rudy
TTITLE6=Alabama - When It All Goes South
TTITLE7=Martina McBride - Love's The Only House
TTITLE8=Andy Griggs - She's More
TTITLE9=Brooks and Dunn - I Can't Get Over You
TTITLE10=Tara Lyn Hart - What He Used To Do
TTITLE11=3 Of Hearts - Arizona Rain
TTITLE12=Phil Vassar - Carlene
TTITLE13=Adam Gregory - Only Know I Do
TTITLE14=Brad Paisley - We Danced
TTITLE15=Julian Austin - Forever Loving You
TTITLE16=Kenny Chesney - She Thinks My Tractor's Sexy
EXTD=
EXTT0=
EXTT1=
EXTT2=
EXTT3=
EXTT4=
EXTT5=
EXTT6=
EXTT7=
EXTT8=
EXTT9=
EXTT10=
EXTT11=
EXTT12=
EXTT13=
EXTT14=
EXTT15=
EXTT16=
PLAYORDER=
